<?xml version="1.0" encoding="UTF-8"?>
<svg id="Layer_1" xmlns="http://www.w3.org/2000/svg" version="1.1" viewBox="0 0 128 128">
  <!-- Generator: Adobe Illustrator 30.0.0, SVG Export Plug-In . SVG Version: 2.1.1 Build 123)  -->
  <defs>
    <style>
      .st0 {
        fill: #2e3191;
      }

      .st1 {
        fill: #be1e2d;
      }

      .st2 {
        fill: #a81e22;
      }
    </style>
  </defs>
  <polygon class="st2" points="107.85 31.53 107.85 31.56 107.81 31.53 107.85 31.53"/>
  <polygon class="st2" points="18.56 95.84 18.55 95.84 18.55 95.83 18.56 95.84"/>
  <path class="st1" d="M107.85,31.56l-.04-.03h-14.56v-11.35h9.62V0h-50.92v20.18h9.61v11.35h-16.65s0,0,0,0l-9.02,6.72-.02.02v22.51H6.85v26.35l.07.05,11.63,8.66h.01s17.31,0,17.31,0v23.01h0s12.27,9.14,12.27,9.14h0s60.71,0,60.71,0h0s12.26-9.14,12.26-9.14h0v-26.96h-28.07v14.34h-31.27v-10.4h19.76s11.66-8.67,11.66-8.67l.05-.04v-26.37h27.87v-19.27l.03-.04-13.3-9.91ZM55.89,16.24V3.94h43.03v12.29h-9.61v15.29h-23.8v-15.29h-9.62ZM96.99,110.19v-14.35h20.19v21.03l-9.65,7.19h-58.08l-9.64-7.18v-21.03h18.03v14.35h39.15ZM89.31,85.16l-9.05,6.75H19.87l-9.07-6.76v-20.43h22.08v13.79h32.63v-25.85h23.8v32.51ZM117.18,56.83h-20.24v-8.12h-39.11v25.85h-18.03v-34.32l6.41-4.77h60.28l10.68,7.96v13.4Z"/>
  <polygon class="st0" points="117.18 95.84 117.18 116.87 107.53 124.06 49.45 124.06 39.81 116.88 39.81 95.84 57.84 95.84 57.84 110.19 96.99 110.19 96.99 95.84 117.18 95.84"/>
  <polygon class="st0" points="89.31 52.65 89.31 85.16 80.25 91.9 19.87 91.9 10.8 85.14 10.8 64.71 32.87 64.71 32.87 78.5 65.51 78.5 65.51 52.65 89.31 52.65"/>
  <polygon class="st0" points="117.18 43.43 117.18 56.83 96.94 56.83 96.94 48.71 57.84 48.71 57.84 74.56 39.81 74.56 39.81 40.24 46.22 35.47 106.5 35.47 117.18 43.43"/>
  <polygon class="st0" points="98.92 3.94 98.92 16.24 89.31 16.24 89.31 31.53 65.51 31.53 65.51 16.24 55.89 16.24 55.89 3.94 98.92 3.94"/>
  <polygon class="st2" points="121.12 118.85 121.12 118.86 121.11 118.86 121.12 118.85"/>
  <polygon class="st2" points="6.92 87.17 6.85 87.17 6.85 87.12 6.92 87.17"/>
  <polygon class="st2" points="18.6 95.84 18.59 95.86 18.56 95.84 18.6 95.84"/>
  <polygon class="st2" points="35.89 38.25 35.87 38.26 35.87 38.25 35.89 38.25"/>
  <polygon class="st2" points="93.25 87.14 93.25 87.17 93.2 87.17 93.25 87.14"/>
  <polygon class="st2" points="35.87 118.86 35.87 118.86 35.87 118.85 35.87 118.86"/>
  <polygon class="st2" points="48.14 128 48.14 128 48.14 128 48.14 128"/>
</svg>